<?xml version="1.0" encoding="UTF-8" standalone="no"?>
<!-- Created with Inkscape (http://www.inkscape.org/) -->

<svg
   xmlns:dc="http://purl.org/dc/elements/1.1/"
   xmlns:cc="http://creativecommons.org/ns#"
   xmlns:rdf="http://www.w3.org/1999/02/22-rdf-syntax-ns#"
   xmlns:svg="http://www.w3.org/2000/svg"
   xmlns="http://www.w3.org/2000/svg"
   xmlns:sodipodi="http://sodipodi.sourceforge.net/DTD/sodipodi-0.dtd"
   xmlns:inkscape="http://www.inkscape.org/namespaces/inkscape"
   version="1.1"
   id="svg2"
   xml:space="preserve"
   width="522.17334"
   height="522.17334"
   viewBox="0 0 522.17335 522.17334"
   sodipodi:docname="logo-sq.svg"
   inkscape:version="0.92.4 (5da689c313, 2019-01-14)"
   inkscape:export-filename="/home/zee/Downloads/3-color.png"
   inkscape:export-xdpi="96.400002"
   inkscape:export-ydpi="96.400002"><metadata
     id="metadata8"><rdf:RDF><cc:Work
         rdf:about=""><dc:format>image/svg+xml</dc:format><dc:type
           rdf:resource="http://purl.org/dc/dcmitype/StillImage" /><dc:title></dc:title></cc:Work></rdf:RDF></metadata><defs
     id="defs6" /><sodipodi:namedview
     pagecolor="#ffffff"
     bordercolor="#666666"
     borderopacity="1"
     objecttolerance="10"
     gridtolerance="10"
     guidetolerance="10"
     inkscape:pageopacity="0"
     inkscape:pageshadow="2"
     inkscape:window-width="1874"
     inkscape:window-height="983"
     id="namedview4"
     showgrid="false"
     inkscape:zoom="0.30009657"
     inkscape:cx="123.41279"
     inkscape:cy="439.02143"
     inkscape:window-x="1096"
     inkscape:window-y="499"
     inkscape:window-maximized="1"
     inkscape:current-layer="g10" /><g
     id="g10"
     inkscape:groupmode="layer"
     inkscape:label="CampaignRaven-d00a_00a_cv (4)"
     transform="matrix(1.3333333,0,0,-1.3333333,0,522.17333)"><g
   id="g12"
   transform="translate(10.5,-63)"><g
     transform="translate(108.1831,362.4498)"
     id="g20"
     style="fill:#0370a1;fill-opacity:1"><path
       inkscape:connector-curvature="0"
       id="path22"
       style="fill:#0370a1;fill-opacity:1;fill-rule:nonzero;stroke:none"
       d="m 0,0 c -4.622,-5.105 -11.237,-8.372 -18.667,-8.372 -13.953,0 -25.264,11.31 -25.264,25.264 0,6.5 2.524,12.366 6.557,16.843 -8.076,8.193 -17.148,17.986 -26.711,29.705 -2.542,3.117 -4.618,5.75 -6.061,7.606 3.598,-9.178 7.198,-18.356 10.796,-27.533 -1.904,-4.99 -4.354,-13.368 -3.779,-23.755 0.159,-2.852 1.756,-25.809 18.357,-38.87 16.769,-13.195 43.97,-12.448 65.863,3.239 C 14.245,-11.056 7.178,-5.741 0,0" /></g><g
     transform="translate(270.5991,362.4498)"
     id="g24"
     style="fill:#028ac7;fill-opacity:1"><path
       inkscape:connector-curvature="0"
       id="path26"
       style="opacity:0.95;fill:#028ac7;fill-opacity:1;fill-rule:nonzero;stroke:none"
       d="m 0,0 c 4.623,-5.105 11.237,-8.372 18.668,-8.372 13.952,0 25.264,11.31 25.264,25.264 0,6.5 -2.525,12.366 -6.558,16.843 8.077,8.193 17.149,17.986 26.711,29.705 2.543,3.117 4.618,5.75 6.062,7.606 C 66.548,61.868 62.949,52.69 59.35,43.513 61.254,38.523 63.705,30.145 63.129,19.758 62.971,16.906 61.374,-6.051 44.773,-19.112 28.003,-32.307 0.803,-31.56 -21.09,-15.873 -14.244,-11.056 -7.177,-5.741 0,0" /></g><g
     transform="translate(186.5122,361.693)"
     id="g28"
     style="fill:#0370a1;fill-opacity:1"><path
       inkscape:connector-curvature="0"
       id="path30"
       style="fill:#0370a1;fill-opacity:1;fill-rule:nonzero;stroke:none"
       d="m 0,0 c -2.445,-5.143 -13.446,-27.447 -45.349,-54.706 -13.243,-11.315 -33.452,-26.36 -61.185,-39.591 17.67,-13.419 40.445,-33.891 61.185,-63.344 31.989,-45.426 43.558,-90.095 48.228,-116.611 V 6.486 C 2.248,4.957 1.279,2.691 0,0" /></g><g
     transform="translate(192.27,361.693)"
     id="g32"
     style="fill:#028ac7;fill-opacity:1"><path
       inkscape:connector-curvature="0"
       id="path34"
       style="fill:#028ac7;fill-opacity:1;fill-rule:nonzero;stroke:none"
       d="m 0,0 c 2.445,-5.143 13.447,-27.447 45.349,-54.706 13.243,-11.315 33.453,-26.36 61.185,-39.591 -17.67,-13.419 -40.445,-33.891 -61.185,-63.344 C 13.36,-203.067 1.791,-247.736 -2.879,-274.252 V 6.486 C -2.247,4.957 -1.279,2.691 0,0" /></g></g>






<path
   style="stroke-width:1.96078432"
   d=""
   id="path3921"
   inkscape:connector-curvature="0"
   transform="matrix(0.75000002,0,0,-0.75000002,0,501.13001)" />





<path
   style="opacity:0.95;fill:#0370a1;fill-opacity:0.39215686;stroke:#0370a1;stroke-width:0;stroke-miterlimit:4;stroke-dasharray:none;stroke-opacity:0.10196078"
   d="m 94.030817,291.59946 c -5.711733,1.24968 -11.387088,4.79141 -14.729878,9.19228 -6.433575,8.46995 -7.527855,18.29981 -3.068002,27.55974 1.041884,2.16325 2.341468,4.33984 2.887963,4.83687 0.965991,0.87855 1.026853,0.87828 2.1882,-0.009 13.323777,-11.83571 23.34334,-21.00303 37.374,-33.72947 l -2.26292,-2.09093 c -4.14729,-3.83207 -11.39688,-6.54326 -17.22375,-6.44131 -1.223983,0.0215 -3.548513,0.32841 -5.165613,0.68223 z"
   id="path861"
   inkscape:connector-curvature="0"
   sodipodi:nodetypes="ccscccscc" /><path
   style="fill:#028ac7;fill-opacity:0.39215686;stroke:#028ac7;stroke-width:0;stroke-miterlimit:4;stroke-dasharray:none;stroke-opacity:0.09803922"
   d="m 294.71105,291.81126 c -4.58349,0.91457 -11.22321,4.4478 -13.32035,7.08822 -0.43179,0.54365 3.00994,3.84538 18.21629,17.47529 l 18.86611,16.81003 1.76636,-2.44437 c 2.27459,-3.14762 3.53142,-6.72664 4.1929,-11.21464 1.4555,-9.87538 -3.03765,-20.85612 -12.11842,-25.27716 -5.17853,-2.52121 -12.61491,-3.43266 -17.60289,-2.43737 z"
   id="path857"
   inkscape:connector-curvature="0"
   sodipodi:nodetypes="ccscccsc" /></g></svg>