<svg xmlns="http://www.w3.org/2000/svg" viewBox="0 -960 960 960"  fill="currentColor"><path d="M485.39-180v-60h111.15q3.08 0 5.58-1.15 2.5-1.16 4.42-3.47L785-480 606.54-715.38q-1.92-2.31-4.42-3.47-2.5-1.15-5.58-1.15H172.31q-5.39 0-8.85 3.46t-3.46 8.85v180h-60v-180.19q0-29.73 21.24-50.93Q142.48-780 172.31-780h424.23q17.17 0 32.54 7.58 15.36 7.58 25.3 20.96L860-480 654.38-208.54q-9.94 13.38-25.3 20.96-15.37 7.58-32.54 7.58H485.39Zm-12.7-300Zm-255 340v-120h-120v-60h120v-120h60v120h120v60h-120v120h-60Z"/></svg>