<?xml version="1.0" encoding="iso-8859-1"?>
<!-- Uploaded to: SVG Repo, www.svgrepo.com, Generator: SVG Repo Mixer Tools -->
<!DOCTYPE svg PUBLIC "-//W3C//DTD SVG 1.1//EN" "http://www.w3.org/Graphics/SVG/1.1/DTD/svg11.dtd">
<svg fill="#000000" height="800px" width="800px" version="1.1" id="Capa_1" xmlns="http://www.w3.org/2000/svg" xmlns:xlink="http://www.w3.org/1999/xlink" 
	 viewBox="0 0 56.023 56.023" xml:space="preserve">
<path d="M49.762,17.914H42.08V9.273C42.08,4.16,38.685,0,34.512,0h-13c-4.173,0-7.568,4.16-7.568,9.273v8.641H6.262
	c-0.553,0-1,0.448-1,1v24.109c0,7.168,5.353,13,11.932,13H38.83c6.579,0,11.932-5.832,11.932-13V18.914
	C50.762,18.362,50.314,17.914,49.762,17.914z M15.943,9.273C15.943,5.263,18.441,2,21.512,2h13c3.07,0,5.568,3.263,5.568,7.273
	v8.641H15.943V9.273z M48.762,43.023c0,6.065-4.455,11-9.932,11H17.193c-5.477,0-9.932-4.935-9.932-11V19.914h41.5V43.023z
	 M28.012,45.461c4.683,0,8.492-3.81,8.492-8.492s-3.81-8.492-8.492-8.492s-8.492,3.81-8.492,8.492S23.329,45.461,28.012,45.461z
	 M27.012,30.562v5.587c0,0.552,0.447,1,1,1s1-0.448,1-1v-5.587c3.106,0.483,5.492,3.168,5.492,6.407c0,3.58-2.912,6.492-6.492,6.492
	s-6.492-2.913-6.492-6.492C21.52,33.73,23.906,31.045,27.012,30.562z"/>
</svg>